#!OML:ASF I:\Actors\actors\Patient Classification 1\Patient 1\Session 1\Subject1.ASF
:FULLY-SPECIFIED
:DEGREES
634
root 0.776142 17.4641 9.72518 9.68683 -3.10975 -8.5835
lowerback -5.39344 2.99598 8.6844
upperback -8.64977 3.86061 -0.523712
thorax -5.49377 1.39993 -5.36091
lowerneck -9.15311 -6.38326 -4.28405
upperneck 19.1372 -10.7995 12.6685
head 8.38991 -4.31995 3.81771
rclavicle 1.0138e-014 7.95139e-015
rhumerus 5.70124 42.417 -78.1873
rradius 133.169
rwrist -25.6098
rhand 3.34572 -68.0329
rfingers 7.12502
rthumb 28.7909 -264.168
lclavicle 1.0138e-014 7.95139e-015
lhumerus -68.2647 53.3934 25.0875
lradius 28.0132
lwrist -11.876
lhand -36.5664 -27.7389
lfingers 7.12502
lthumb -9.65632 2.01976
rfemur -1.92038 26.7412 25.3607
rtibia 1.96456
rfoot -13.2157 -26.8707
rtoes 4.90757
lfemur 9.89083 -47.193 -17.0686
ltibia -5.37821
lfoot -31.8066 56.1741
ltoes 19.3169
635
root 0.7784 17.4643 9.72515 9.6923 -3.10159 -8.56465
lowerback -5.41352 3.01769 8.68623
upperback -8.66555 3.88679 -0.562776
thorax -5.49299 1.41122 -5.40194
lowerneck -9.0729 -6.40483 -4.20552
upperneck 19.0918 -10.8307 12.6367
head 8.3567 -4.3371 3.79201
rclavicle 1.59028e-014 -3.4191e-014
rhumerus 5.76953 42.2566 -78.0798
rradius 133.176
rwrist -25.8876
rhand 3.50289 -68.1469
rfingers 7.12502
rthumb 28.941 -264.079
lclavicle 1.59028e-014 -3.4191e-014
lhumerus -67.8685 53.1565 25.5043
lradius 27.9174
lwrist -11.6532
lhand -36.5816 -27.8439
lfingers 7.12502
lthumb -9.67101 1.91406
rfemur -1.93266 26.702 25.3215
rtibia 1.94251
rfoot -13.1695 -26.842
rtoes 4.79489
lfemur 9.89028 -47.2046 -17.1098
ltibia -5.37135
lfoot -31.7047 56.2173
ltoes 19.149
636
root 0.780909 17.4648 9.72429 9.70429 -3.08752 -8.52713
lowerback -5.45424 3.00103 8.64922
upperback -8.65707 3.86075 -0.554679
thorax -5.46669 1.4022 -5.37088
lowerneck -9.07014 -6.39245 -4.30681
upperneck 19.109 -10.8117 12.697
head 8.36909 -4.32942 3.83185
rclavicle 9.14409e-015 2.22639e-014
rhumerus 5.96195 42.2683 -77.8763
rradius 133.158
rwrist -26.0189
rhand 3.48872 -68.188
rfingers 7.12502
rthumb 28.9275 -264.036
lclavicle 9.14409e-015 2.22639e-014
lhumerus -67.9123 53.1604 25.4891
lradius 27.8975
lwrist -11.6042
lhand -36.5525 -27.9817
lfingers 7.12502
lthumb -9.64286 1.77761
rfemur -1.95643 26.6288 25.2528
rtibia 1.92303
rfoot -13.1356 -26.8026
rtoes 4.62757
lfemur 9.84189 -47.2249 -17.1441
ltibia -5.32869
lfoot -31.8776 56.1736
ltoes 19.2385
637
root 0.782173 17.4645 9.7227 9.71151 -3.08104 -8.54244
lowerback -5.49393 2.97799 8.62745
upperback -8.62598 3.82632 -0.510764
thorax -5.41931 1.39096 -5.31001
lowerneck -9.16502 -6.37446 -4.4756
upperneck 19.2589 -10.7894 12.753
head 8.44717 -4.31604 3.88071
rclavicle 1.27222e-014 -1.35174e-014
rhumerus 6.23715 42.3242 -77.5973
rradius 133.208
rwrist -26.046
rhand 3.405 -68.2038
rfingers 7.12502
rthumb 28.8475 -264.006
lclavicle 1.27222e-014 -1.35174e-014
lhumerus -67.9719 53.2074 25.4733
lradius 27.8849
lwrist -11.5538
lhand -36.5398 -27.9845
lfingers 7.12502
lthumb -9.63069 1.7754
rfemur -1.9643 26.6548 25.2652
rtibia 1.92456
rfoot -13.1665 -26.8245
rtoes 4.58823
lfemur 9.80962 -47.2247 -17.1078
ltibia -5.31881
lfoot -31.8752 56.1772
ltoes 19.1353
638
root 0.783501 17.4641 9.72091 9.71942 -3.07311 -8.54191
lowerback -5.5095 2.9369 8.5944
upperback -8.61456 3.77176 -0.458451
thorax -5.41092 1.36804 -5.23662
lowerneck -9.19379 -6.32669 -4.58179
upperneck 19.413 -10.7177 12.7246
head 8.50082 -4.28524 3.89848
rclavicle -7.35503e-015 -1.03368e-014
rhumerus 6.48722 42.416 -77.3418
rradius 133.399
rwrist -26.1619
rhand 3.24082 -68.4463
rfingers 7.12502
rthumb 28.6906 -263.737
lclavicle -7.35503e-015 -1.03368e-014
lhumerus -68.1538 53.2276 25.3892
lradius 27.9268
lwrist -11.5417
lhand -36.5342 -27.8934
lfingers 7.12502
lthumb -9.62526 1.86673
rfemur -1.96479 26.7281 25.2604
rtibia 1.908
rfoot -13.235 -26.8801
rtoes 4.75874
lfemur 9.78948 -47.2237 -17.0914
ltibia -5.33343
lfoot -31.8385 56.1964
ltoes 19.133
639
root 0.785094 17.464 9.71929 9.73332 -3.06657 -8.47984
lowerback -5.52021 2.85875 8.50005
upperback -8.6259 3.67071 -0.395177
thorax -5.43976 1.32331 -5.11983
lowerneck -9.16406 -6.23559 -4.54007
upperneck 19.5674 -10.5689 12.5116
head 8.5169 -4.22684 3.83949
rclavicle 9.83984e-015 -4.05521e-014
rhumerus 6.72068 42.6414 -77.1576
rradius 133.719
rwrist -26.2797
rhand 2.96338 -68.7401
rfingers 7.12502
rthumb 28.4256 -263.399
lclavicle 9.83984e-015 -4.05521e-014
lhumerus -68.5802 53.2623 25.1244
lradius 28.0463
lwrist -11.5264
lhand -36.4569 -27.8679
lfingers 7.12502
lthumb -9.55063 1.89564
rfemur -1.98626 26.6959 25.1669
rtibia 1.89057
rfoot -13.2314 -26.8705
rtoes 4.84873
lfemur 9.75709 -47.2729 -17.1551
ltibia -5.31195
lfoot -31.9691 56.1897
ltoes 19.2996
640
root 0.785759 17.464 9.71818 9.74852 -3.06446 -8.45112
lowerback -5.57011 2.78168 8.40677
upperback -8.62367 3.56709 -0.313917
thorax -5.43256 1.27999 -4.98221
lowerneck -9.1579 -6.14461 -4.39554
upperneck 19.8296 -10.4206 12.1622
head 8.56099 -4.16868 3.71724
rclavicle 1.94809e-014 1.59028e-014
rhumerus 6.9594 42.9314 -77.0175
rradius 134.16
rwrist -26.2737
rhand 2.78006 -68.8815
rfingers 7.12502
rthumb 28.2504 -263.228
lclavicle 1.94809e-014 1.59028e-014
lhumerus -68.9351 53.2668 24.9526
lradius 28.181
lwrist -11.4072
lhand -36.3698 -27.8907
lfingers 7.12502
lthumb -9.46661 1.87669
rfemur -2.01203 26.6519 25.1176
rtibia 1.89834
rfoot -13.1854 -26.8426
rtoes 4.76383
lfemur 9.71785 -47.303 -17.1715
ltibia -5.28629
lfoot -31.8849 56.2184
ltoes 19.1719
641
root 0.785765 17.4647 9.71728 9.73618 -3.04798 -8.47296
lowerback -5.6236 2.71779 8.35274
upperback -8.59432 3.4794 -0.217661
thorax -5.39056 1.24524 -4.84934
lowerneck -9.12382 -6.04883 -4.35155
upperneck 20.1614 -10.2843 11.9378
head 8.63804 -4.11089 3.65457
rclavicle -3.47873e-015 1.03368e-014
rhumerus 7.23608 43.2665 -76.8268
rradius 134.764
rwrist -26.1507
rhand 2.55898 -69.0324
rfingers 7.12502
rthumb 28.0391 -263.043
lclavicle -3.47873e-015 1.03368e-014
lhumerus -69.0239 53.19 25.0489
lradius 28.239
lwrist -11.214
lhand -36.4005 -27.8458
lfingers 7.12502
lthumb -9.49622 1.92025
rfemur -1.99958 26.6644 25.1564
rtibia 1.91124
rfoot -13.1666 -26.8564
rtoes 4.53673
lfemur 9.70678 -47.27 -17.1264
ltibia -5.29101
lfoot -31.6657 56.2174
ltoes 19.024
642
root 0.785497 17.466 9.71774 9.68985 -3.00678 -8.49371
lowerback -5.66303 2.64527 8.30718
upperback -8.55783 3.38104 -0.12517
thorax -5.34939 1.20464 -4.72615
lowerneck -8.95996 -5.89961 -4.30517
upperneck 20.467 -10.0954 11.8273
head 8.6841 -4.02379 3.63999
rclavicle 7.05686e-015 -1.03368e-014
rhumerus 7.50864 43.6447 -76.6814
rradius 135.495
rwrist -25.9632
rhand 2.29991 -69.2514
rfingers 7.12502
rthumb 27.7914 -262.783
lclavicle 7.05686e-015 -1.03368e-014
lhumerus -69.0747 53.1043 25.1769
lradius 28.2702
lwrist -11.0378
lhand -36.4126 -27.8329
lfingers 7.12502
lthumb -9.50788 1.9326
rfemur -1.92552 26.6761 25.2202
rtibia 1.90223
rfoot -13.1885 -26.9019
rtoes 4.45095
lfemur 9.75791 -47.246 -17.1254
ltibia -5.30377
lfoot -31.5528 56.1795
ltoes 19.0431
